<svg xmlns="http://www.w3.org/2000/svg" width="22" height="22" viewBox="0 0 22 22"><path fill="#DBE2E7" d="M18.312 17.5c.47 0 .868-.164 1.196-.492.328-.328.492-.727.492-1.196V5.687c0-.468-.164-.867-.492-1.195A1.63 1.63 0 0018.312 4H3.687c-.468 0-.867.164-1.195.492A1.63 1.63 0 002 5.687v10.125c0 .47.164.868.492 1.196.328.328.727.492 1.195.492h14.625zM11 12.437c-.305 0-.68-.152-1.125-.457-.281-.164-.656-.445-1.125-.843l-.316-.282A657.99 657.99 0 013.687 7.13V5.687h14.625V7.13c-.82.68-2.402 1.922-4.746 3.726l-.316.282c-.469.398-.844.68-1.125.843-.445.305-.82.457-1.125.457zm7.312 3.375H3.687V9.273l4.043 3.235c.61.492 1.09.844 1.442 1.054.656.375 1.265.563 1.828.563.562 0 1.16-.188 1.793-.563.375-.21.855-.562 1.441-1.054l4.078-3.235v6.54z"/></svg>